<?xml version="1.0" encoding="iso-8859-1"?>
<!-- Uploaded to: SVG Repo, www.svgrepo.com, Generator: SVG Repo Mixer Tools -->
<svg version="1.1" id="Layer_1" xmlns="http://www.w3.org/2000/svg" xmlns:xlink="http://www.w3.org/1999/xlink" 
	 viewBox="0 0 512 512" xml:space="preserve">
<g>
	<rect x="378.412" y="161.264" style="fill:#E5E5E5;" width="36.191" height="342.753"/>
	<rect x="97.397" y="161.264" style="fill:#E5E5E5;" width="36.191" height="342.753"/>
</g>
<g>
	<rect x="378.412" y="161.264" style="fill:#CCCCCC;" width="36.191" height="113.183"/>
	<rect x="378.412" y="314.545" style="fill:#CCCCCC;" width="36.191" height="116.738"/>
	<rect x="97.397" y="161.264" style="fill:#CCCCCC;" width="36.191" height="113.183"/>
	<rect x="97.397" y="314.545" style="fill:#CCCCCC;" width="36.191" height="115.312"/>
</g>
<rect x="9.048" y="161.264" style="fill:#666666;" width="493.904" height="95.8"/>
<g>
	<polygon style="fill:#F7D04A;" points="59.411,257.064 154.314,257.064 250.115,161.264 155.212,161.264 	"/>
	<polygon style="fill:#F7D04A;" points="411.254,161.264 316.35,161.264 220.55,257.064 315.454,257.064 	"/>
	<polygon style="fill:#F7D04A;" points="88.975,161.264 9.048,161.264 9.048,241.191 	"/>
	<polygon style="fill:#F7D04A;" points="381.689,257.064 502.952,257.064 502.952,161.264 477.49,161.264 	"/>
</g>
<rect x="9.048" y="314.545" style="fill:#666666;" width="493.904" height="95.8"/>
<g>
	<polygon style="fill:#F7D04A;" points="59.411,410.345 154.314,410.345 250.115,314.545 155.212,314.545 	"/>
	<polygon style="fill:#F7D04A;" points="411.254,314.545 316.35,314.545 220.55,410.345 315.454,410.345 	"/>
	<polygon style="fill:#F7D04A;" points="88.975,314.545 9.048,314.545 9.048,394.472 	"/>
	<polygon style="fill:#F7D04A;" points="381.689,410.345 502.952,410.345 502.952,314.545 477.49,314.545 	"/>
</g>
<path style="fill:#EB6836;" d="M361.38,161.264h70.254v-53.222c0-17.637-14.297-31.933-31.933-31.933h-6.387
	c-17.637,0-31.933,14.297-31.933,31.933V161.264z"/>
<path style="fill:#C74B38;" d="M407.152,76.992c-2.392-0.572-4.885-0.883-7.451-0.883h-6.387c-17.637,0-31.933,14.297-31.933,31.933
	v53.222h21.289v-53.222C382.669,92.972,393.111,80.349,407.152,76.992z"/>
<path style="fill:#EB6836;" d="M150.62,161.264H80.366v-53.222c0-17.637,14.297-31.933,31.933-31.933h6.387
	c17.637,0,31.933,14.297,31.933,31.933V161.264z"/>
<path style="fill:#C74B38;" d="M126.936,77.19c-2.632-0.703-5.396-1.081-8.249-1.081h-6.387c-17.637,0-31.933,14.297-31.933,31.933
	v53.222h22.886v-53.222C103.252,93.259,113.299,80.827,126.936,77.19z"/>
<path d="M502.952,265.048c4.409,0,7.983-3.574,7.983-7.983v-95.8c0-4.409-3.574-7.983-7.983-7.983h-63.335v-45.239
	c0-22.011-17.906-39.917-39.917-39.917h-6.387c-22.011,0-39.917,17.906-39.917,39.917v45.239H217.68
	c-4.409,0-7.983,3.574-7.983,7.983c0,4.409,3.574,7.983,7.983,7.983h13.161l-79.834,79.834H78.684l79.834-79.834h16.584
	c4.409,0,7.983-3.574,7.983-7.983c0-4.409-3.574-7.983-7.983-7.983h-16.499v-45.239c0-22.011-17.906-39.917-39.917-39.917h-6.387
	c-22.011,0-39.917,17.906-39.917,39.917v45.239H9.048c-4.409,0-7.983,3.574-7.983,7.983v95.8c0,4.409,3.574,7.983,7.983,7.983
	h80.366v41.514h-0.439H9.048c-4.409,0-7.983,3.574-7.983,7.983v95.8c0,4.409,3.574,7.983,7.983,7.983h80.366v85.688
	c0,4.409,3.574,7.983,7.983,7.983h36.191c4.409,0,7.983-3.574,7.983-7.983v-85.688h118.686l0,0c4.409,0,7.983-3.574,7.983-7.983
	c0-4.409-3.574-7.983-7.983-7.983l0,0h-20.434l79.834-79.834h72.323l-79.834,79.834H294.32c-4.409,0-7.983,3.574-7.983,7.983
	c0,4.409,3.574,7.983,7.983,7.983h76.108v85.688c0,4.409,3.574,7.983,7.983,7.983h36.191c4.409,0,7.983-3.574,7.983-7.983v-85.688
	h80.366c4.409,0,7.983-3.574,7.983-7.983v-95.8c0-4.409-3.574-7.983-7.983-7.983h-80.366v-41.514H502.952z M88.349,108.042
	c0-13.207,10.743-23.95,23.95-23.95h6.387c13.207,0,23.95,10.743,23.95,23.95v45.239H88.975h-0.626V108.042z M17.031,169.247h52.67
	l-52.67,52.67V169.247z M17.031,244.498l75.25-75.25h43.656l-79.834,79.834H17.031V244.498z M494.969,169.247v79.834h-94.006
	l79.834-79.834H494.969z M431.634,169.247h26.582l-79.834,79.834h-43.656l79.834-79.834H431.634z M369.364,108.042
	c0-13.207,10.743-23.95,23.95-23.95h6.387c13.207,0,23.95,10.743,23.95,23.95v45.239h-54.287V108.042z M391.98,169.247
	l-79.834,79.834h-72.323l79.834-79.834H391.98z M253.421,169.247h43.656l-79.834,79.834h-43.656L253.421,169.247z M105.38,265.048
	h20.225v41.514H105.38V265.048z M17.031,322.528h52.67l-52.67,52.67V322.528z M17.031,397.778l75.25-75.25h43.656l-79.834,79.834
	H17.031V397.778z M125.605,496.033H105.38v-77.705h20.225V496.033z M78.684,402.362l79.834-79.834h72.323l-79.834,79.834H78.684z
	 M217.243,402.362h-43.656l79.834-79.834h43.656L217.243,402.362z M141.572,306.561v-41.514h228.857v41.514H141.572z
	 M414.56,322.528h43.656l-79.834,79.834h-43.656L414.56,322.528z M406.62,496.033h-20.225v-77.705h20.225V496.033z M494.969,322.528
	v79.834h-94.006l79.834-79.834H494.969z M406.62,306.561h-20.225v-41.514h20.225V306.561z"/>
<path d="M114.428,45.771c4.409,0,7.983-3.574,7.983-7.983V7.983c0-4.409-3.574-7.983-7.983-7.983c-4.409,0-7.983,3.574-7.983,7.983
	v29.805C106.445,42.197,110.019,45.771,114.428,45.771z"/>
<path d="M65.128,61.516c3.247,3.247,8.728,3.028,11.714-0.458c2.676-3.124,2.482-7.926-0.425-10.832L55.343,29.151
	c-3.118-3.118-8.173-3.118-11.29,0c-3.118,3.118-3.118,8.173,0,11.29L65.128,61.516z"/>
<path d="M22.886,107.509H52.69c4.409,0,7.983-3.574,7.983-7.983c0-4.409-3.574-7.983-7.983-7.983H22.886
	c-4.409,0-7.983,3.574-7.983,7.983C14.902,103.935,18.477,107.509,22.886,107.509z"/>
<path d="M168.183,99.526c0,4.409,3.574,7.983,7.983,7.983h29.805c4.409,0,7.983-3.574,7.983-7.983c0-4.409-3.574-7.983-7.983-7.983
	h-29.805C171.757,91.543,168.183,95.117,168.183,99.526z"/>
<path d="M158.083,63.854c2.043,0,4.086-0.779,5.645-2.339l21.075-21.075c3.118-3.118,3.118-8.173,0-11.29
	c-3.118-3.118-8.173-3.118-11.29,0l-21.075,21.075C147.521,55.143,151.102,63.854,158.083,63.854z"/>
<path d="M397.572,45.771c4.409,0,7.983-3.574,7.983-7.983V7.983c0-4.409-3.574-7.983-7.983-7.983c-4.409,0-7.983,3.574-7.983,7.983
	v29.805C389.588,42.197,393.163,45.771,397.572,45.771z"/>
<path d="M441.227,63.854c2.043,0,4.086-0.779,5.645-2.339l21.075-21.075c3.118-3.118,3.118-8.173,0-11.29
	c-3.118-3.118-8.173-3.118-11.29,0l-21.075,21.075C430.664,55.143,434.245,63.854,441.227,63.854z"/>
<path d="M451.326,99.526c0,4.409,3.574,7.983,7.983,7.983h29.805c4.409,0,7.983-3.574,7.983-7.983c0-4.409-3.574-7.983-7.983-7.983
	H459.31C454.901,91.543,451.326,95.117,451.326,99.526z"/>
<path d="M306.029,107.509h29.805c4.409,0,7.983-3.574,7.983-7.983c0-4.409-3.574-7.983-7.983-7.983h-29.805
	c-4.409,0-7.983,3.574-7.983,7.983C298.046,103.935,301.62,107.509,306.029,107.509z"/>
<path d="M348.272,61.516c3.248,3.247,8.729,3.028,11.714-0.458c2.676-3.124,2.482-7.926-0.425-10.832l-21.075-21.075
	c-3.118-3.118-8.173-3.118-11.29,0c-3.118,3.118-3.118,8.173,0,11.29L348.272,61.516z"/>
</svg>