<?xml version="1.0" encoding="iso-8859-1"?>
<!-- Uploaded to: SVG Repo, www.svgrepo.com, Generator: SVG Repo Mixer Tools -->
<svg version="1.1" id="Layer_1" xmlns="http://www.w3.org/2000/svg" xmlns:xlink="http://www.w3.org/1999/xlink" 
	 viewBox="0 0 512 512" xml:space="preserve">
<path style="fill:#445764;" d="M256,78.037c16.521,0,29.928,13.408,29.928,29.928S272.521,137.894,256,137.894
	c-16.521,0-29.929-13.408-29.929-29.929S239.479,78.037,256,78.037z"/>
<path style="fill:#E7ECED;" d="M34.529,215.708L256,12.194l221.471,203.514h-35.914H70.443H34.529z M256,137.894
	c16.521,0,29.928-13.408,29.928-29.929S272.521,78.037,256,78.037c-16.521,0-29.929,13.408-29.929,29.928
	S239.479,137.894,256,137.894z"/>
<rect x="70.443" y="215.713" style="fill:#445764;" width="371.113" height="287.314"/>
<path style="fill:#B2B6B8;" d="M226.072,107.965c0-16.474,13.335-29.839,29.792-29.914V12.319L34.529,215.708h35.914h185.42v-77.828
	C239.406,137.803,226.072,124.439,226.072,107.965z"/>
<path d="M450.535,224.686h49.976L256,0L11.489,224.686h49.976v269.357H22.558V512h466.885v-17.957h-38.907V224.686z M57.569,206.729
	l26.056-23.943h262.16v-17.957h-242.62L256,24.387l198.431,182.341H57.569V206.729z M79.422,464.114h122.707v-17.957H79.422V272.572
	h62.85v-17.957h-62.85v-29.928h353.156v29.928h-62.85v17.957h62.85v173.585H309.871v17.957h122.707v29.928H79.422L79.422,464.114
	L79.422,464.114z"/>
<path d="M256,69.058c-21.453,0-38.907,17.454-38.907,38.907s17.454,38.907,38.907,38.907c21.454,0,38.907-17.454,38.907-38.907
	S277.454,69.058,256,69.058z M256,128.915c-11.551,0-20.95-9.399-20.95-20.95s9.399-20.95,20.95-20.95
	c11.551,0,20.95,9.399,20.95,20.95S267.551,128.915,256,128.915z"/>
<g>
	<polygon style="fill:#FFFFFF;" points="276.002,267.609 259.941,259.578 217.529,344.4 266.327,344.4 235.776,415.684 
		252.28,422.758 293.559,326.443 246.585,326.443 	"/>
	<rect x="94.383" y="410.248" style="fill:#FFFFFF;" width="23.943" height="17.957"/>
</g>
<rect x="94.383" y="374.334" width="23.943" height="17.957"/>
<rect x="130.297" y="410.248" width="23.943" height="17.957"/>
<rect x="393.668" y="410.248" style="fill:#FFFFFF;" width="23.943" height="17.957"/>
<rect x="357.753" y="410.248" width="23.943" height="17.957"/>
<rect x="393.668" y="374.334" width="23.943" height="17.957"/>
<g>
	<rect x="393.668" y="290.534" style="fill:#FFFFFF;" width="23.943" height="17.957"/>
	<rect x="94.383" y="290.534" style="fill:#FFFFFF;" width="23.943" height="17.957"/>
</g>
</svg>