<?xml version="1.0" encoding="iso-8859-1"?>
<!-- Uploaded to: SVG Repo, www.svgrepo.com, Generator: SVG Repo Mixer Tools -->
<svg version="1.1" id="Layer_1" xmlns="http://www.w3.org/2000/svg" xmlns:xlink="http://www.w3.org/1999/xlink" 
	 viewBox="0 0 512 512" xml:space="preserve">
<path style="fill:#E1EAF6;" d="M395.119,43.08v425.84c0,16.918-13.704,30.622-30.622,30.622H147.503
	c-16.918,0-30.622-13.704-30.622-30.622V43.08c0-16.918,13.704-30.622,30.622-30.622h216.994
	C381.415,12.458,395.119,26.162,395.119,43.08z M347.778,419.2V92.8H164.222v326.4H347.778z"/>
<rect x="164.222" y="92.8" style="fill:#94D8F2;" width="183.557" height="326.4"/>
<path d="M364.497,512c23.754,0,43.08-19.326,43.08-43.08V43.08c0-23.754-19.326-43.08-43.08-43.08H147.503
	c-23.754,0-43.08,19.326-43.08,43.08v425.84c0,23.754,19.326,43.08,43.08,43.08L364.497,512L364.497,512z M129.339,468.92V43.08
	c0-10.015,8.149-18.164,18.164-18.164h216.994c10.015,0,18.164,8.149,18.164,18.164v425.84c0,10.015-8.149,18.164-18.164,18.164
	H147.503C137.488,487.084,129.339,478.935,129.339,468.92z"/>
<path d="M308.324,105.258h4.568c6.879,0,12.458-5.579,12.458-12.458s-5.579-12.458-12.458-12.458h-4.568
	c-6.879,0-12.458,5.579-12.458,12.458S301.444,105.258,308.324,105.258z"/>
<path d="M164.222,431.658h183.557c6.879,0,12.458-5.579,12.458-12.458V92.8c0-6.879-5.579-12.458-12.458-12.458
	S335.32,85.921,335.32,92.8v313.942H176.68V105.258h97.799c6.879,0,12.458-5.579,12.458-12.458s-5.579-12.458-12.458-12.458H164.222
	c-6.879,0-12.458,5.579-12.458,12.458v326.4C151.764,426.081,157.342,431.658,164.222,431.658z"/>
<path d="M232.33,64.769h47.34c6.879,0,12.458-5.579,12.458-12.458s-5.579-12.458-12.458-12.458h-47.34
	c-6.879,0-12.458,5.579-12.458,12.458S225.45,64.769,232.33,64.769z"/>
<path d="M267.212,447.231h-22.424c-6.879,0-12.458,5.579-12.458,12.458c0,6.879,5.579,12.458,12.458,12.458h22.424
	c6.879,0,12.458-5.579,12.458-12.458C279.67,452.809,274.093,447.231,267.212,447.231z"/>
<path d="M347.778,447.231h-22.424c-6.879,0-12.458,5.579-12.458,12.458c0,6.879,5.579,12.458,12.458,12.458h22.424
	c6.879,0,12.458-5.579,12.458-12.458C360.236,452.809,354.659,447.231,347.778,447.231z"/>
<path d="M164.222,472.147h22.424c6.879,0,12.458-5.579,12.458-12.458c0-6.879-5.579-12.458-12.458-12.458h-22.424
	c-6.879,0-12.458,5.579-12.458,12.458C151.764,466.568,157.342,472.147,164.222,472.147z"/>
</svg>