<?xml version="1.0" encoding="iso-8859-1"?>
<!-- Uploaded to: SVG Repo, www.svgrepo.com, Generator: SVG Repo Mixer Tools -->
<svg height="800px" width="800px" version="1.1" id="Layer_1" xmlns="http://www.w3.org/2000/svg" xmlns:xlink="http://www.w3.org/1999/xlink" 
	 viewBox="0 0 512 512" xml:space="preserve">
<path style="fill:#90C8EC;" d="M256.27,142.152c-36.888,0-66.796,46.988-66.796,83.877v229.77c0,10.289,8.343,18.633,18.632,18.633
	h96.327c10.291,0,18.632-8.343,18.632-18.633v-229.77C323.066,189.14,293.157,142.152,256.27,142.152z"/>
<path style="fill:#72B5DB;" d="M432.245,433.025c0,0,0-18.632,0-45.546c0-26.915-109.179-93.162-109.179-93.162v161.481
	c0,3.829-1.16,7.387-3.141,10.348v0.003c0,0,38.825,0,76.089,0C433.279,466.149,432.245,433.025,432.245,433.025z"/>
<path style="fill:#3A5D74;" d="M189.474,293.057v-67.028c0-36.888,29.908-83.877,66.796-83.877
	c36.887,0,66.796,46.988,66.796,83.877v68.289c0,0,15.508,9.411,34.831,22.576V174.947c0-72.656-41.274-135.629-101.627-166.879
	c-60.353,31.249-101.627,94.223-101.627,166.879v140.318c19.072-12.973,34.291-22.207,34.291-22.207"/>
<path style="fill:#72B5DB;" d="M79.755,431.764c0,0,0-18.632,0-45.545c0-26.914,109.179-93.161,109.179-93.161v161.481
	c0,3.83,1.158,7.387,3.139,10.346v0.002c0,0-38.825,0-76.088,0C78.719,464.887,79.755,431.764,79.755,431.764z"/>
<g>
	<path style="fill:#578CAD;" d="M423.962,230.183v-108.79c0-18.241-14.793-33.032-33.033-33.032
		c-18.242,0-33.032,14.79-33.032,33.032v195.503c23.304,15.875,52.148,37.213,66.064,54.108v-110.7"/>
	<path style="fill:#578CAD;" d="M154.643,315.264V121.393c0-18.241-14.793-33.032-33.033-33.032
		c-18.241,0-33.032,14.79-33.032,33.032V369.09C102.802,352.168,131.544,330.975,154.643,315.264z"/>
</g>
<path style="fill:#CAE9F7;" d="M189.474,423.192v32.607c0,10.289,8.343,18.633,18.632,18.633h96.327
	c10.291,0,18.632-8.343,18.632-18.633v-32.607L189.474,423.192L189.474,423.192z"/>
<circle style="fill:#3A5D74;" cx="256.273" cy="308.286" r="31.83"/>
<g>
	<path style="fill:#231F20;" d="M296.169,308.291c0-22-17.899-39.899-39.899-39.899s-39.898,17.899-39.898,39.899
		s17.898,39.898,39.898,39.898S296.169,330.291,296.169,308.291z M256.27,332.053c-13.103,0-23.762-10.66-23.762-23.762
		c0-13.104,10.66-23.763,23.762-23.763c13.104,0,23.763,10.66,23.763,23.763C280.033,321.394,269.372,332.053,256.27,332.053z"/>
	<path style="fill:#231F20;" d="M396.013,474.217c14.014,0,25.11-4.117,32.979-12.235c11.184-11.539,11.348-27.044,11.32-29.021
		v-45.481c0-4.254-1.35-10.157-8.282-19.216V260.304c0-4.456-3.611-8.068-8.068-8.068c-4.457,0-8.068,3.612-8.068,8.068v90.836
		c-10.889-9.959-25.47-21.361-43.593-34.089c-0.109-0.076-0.216-0.152-0.325-0.228c-1.114-0.782-2.242-1.568-3.383-2.361
		c-0.64-0.444-1.278-0.886-1.913-1.324c-0.24-0.166-0.472-0.328-0.714-0.495V121.393c0-13.765,11.198-24.964,24.964-24.964
		c13.766,0,24.965,11.2,24.965,24.964v108.79c0,4.456,3.611,8.068,8.068,8.068c4.457,0,8.068-3.612,8.068-8.068v-108.79
		c0-22.663-18.438-41.1-41.101-41.1c-16.904,0-31.451,10.259-37.756,24.878c-16.821-44.258-49.452-81.619-93.194-104.267
		c-2.326-1.205-5.093-1.205-7.418,0c-43.742,22.648-76.371,60.009-93.194,104.265c-6.305-14.617-20.853-24.877-37.756-24.877
		c-22.663,0-41.1,18.437-41.1,41.1v244.91c-7.405,9.458-8.823,15.553-8.823,19.916v45.479c-0.027,1.974,0.133,17.481,11.318,29.021
		c7.869,8.119,18.965,12.235,32.979,12.235h71.683c4.902,5.831,12.243,9.545,20.438,9.545h40.095v9.787
		c0,4.457,3.611,8.068,8.068,8.068c4.457,0,8.068-3.611,8.068-8.068v-9.787h40.095c7.586,0,14.438-3.185,19.303-8.282
		L396.013,474.217L396.013,474.217z M256.27,389.503c-4.457,0-8.068,3.611-8.068,8.068v17.552h-50.66V293.057v-67.028
		c0-33.416,27.651-75.809,58.728-75.809s58.728,42.393,58.728,75.809v68.289v120.807h-50.66v-17.552
		C264.338,393.116,260.726,389.503,256.27,389.503z M417.406,450.751c-4.715,4.863-11.912,7.33-21.393,7.33h-64.976
		c0.006-0.074,0.003-0.15,0.01-0.224c0.053-0.681,0.087-1.366,0.087-2.059v-32.607V308.9c6.257,4.003,14.428,9.339,23.332,15.424
		c0.475,0.325,0.953,0.651,1.425,0.975c0.498,0.342,1,0.688,1.502,1.035c0.443,0.305,0.887,0.612,1.327,0.917
		c0.576,0.399,1.155,0.803,1.735,1.207c0.343,0.239,0.687,0.478,1.027,0.715c0.748,0.523,1.499,1.05,2.25,1.58
		c0.166,0.117,0.335,0.234,0.499,0.352c2.869,2.026,5.769,4.103,8.665,6.218c49.839,36.385,51.278,48.855,51.278,50.158v45.546
		c0,0.084,0.001,0.168,0.004,0.252C424.183,433.378,424.305,443.635,417.406,450.751z M256.27,17.208
		c57.822,31.635,93.559,91.689,93.559,157.739v126.843c-8.09-5.316-14.754-9.519-18.695-11.974v-63.787
		c0-41.645-33.394-91.945-74.864-91.945s-74.864,50.298-74.864,91.945v62.191c-3.774,2.345-10.471,6.558-18.695,11.954V174.947
		C162.711,108.896,198.448,48.843,256.27,17.208z M96.646,121.393c0-13.765,11.198-24.964,24.964-24.964
		c13.766,0,24.965,11.198,24.965,24.964v53.554v136.06c-21.037,14.458-37.738,27.297-49.928,38.377
		C96.646,349.383,96.646,121.393,96.646,121.393z M115.984,456.819c-9.414,0-16.577-2.431-21.291-7.227
		c-6.971-7.091-6.875-17.527-6.875-17.577c0.003-0.084,0.004-0.168,0.004-0.252v-45.545c0-1.301,1.437-13.76,51.202-50.102
		c15.626-11.41,31.394-21.793,41.842-28.477v146.898c0,0.764,0.032,1.525,0.097,2.281L115.984,456.819L115.984,456.819z
		 M208.106,466.364c-3.484,0-6.57-1.703-8.495-4.312c-0.215-0.574-0.483-1.134-0.834-1.657c-0.24-0.358-0.442-0.736-0.635-1.118
		c-0.382-1.092-0.601-2.259-0.601-3.479V431.26h50.66v35.104L208.106,466.364L208.106,466.364z M264.338,466.364V431.26h50.66
		v24.539c0,0.467-0.042,0.929-0.102,1.387c-0.016,0.119-0.034,0.239-0.055,0.357c-0.068,0.406-0.155,0.806-0.269,1.198
		c-0.014,0.051-0.024,0.103-0.04,0.153c-0.132,0.431-0.3,0.852-0.487,1.264c-0.048,0.105-0.099,0.209-0.151,0.312
		c-0.189,0.382-0.397,0.756-0.634,1.116c-1.89,2.873-5.139,4.777-8.828,4.777h-40.095V466.364z"/>
	<path style="fill:#231F20;" d="M154.643,495.864H88.578c-4.457,0-8.068,3.611-8.068,8.068c0,4.457,3.611,8.068,8.068,8.068h66.064
		c4.457,0,8.068-3.611,8.068-8.068C162.711,499.476,159.099,495.864,154.643,495.864z"/>
	<path style="fill:#231F20;" d="M423.962,495.864h-66.064c-4.457,0-8.068,3.611-8.068,8.068c0,4.457,3.611,8.068,8.068,8.068h66.064
		c4.457,0,8.068-3.611,8.068-8.068C432.03,499.476,428.419,495.864,423.962,495.864z"/>
</g>
<g style="opacity:0.2;">
	<path style="fill:#231F20;" d="M214.959,455.798v-229.77c0-32.53,23.26-72.906,54.053-81.995c-4.125-1.218-8.384-1.88-12.743-1.88
		c-36.888,0-66.796,46.988-66.796,83.877v229.77c0,10.289,8.343,18.633,18.632,18.633h25.485
		C223.303,474.432,214.959,466.088,214.959,455.798z"/>
</g>
<g style="opacity:0.2;">
	<path style="fill:#231F20;" d="M180.128,174.947c0-67.413,35.547-126.474,88.884-159.61c-4.146-2.576-8.389-5.015-12.743-7.269
		c-60.353,31.249-101.627,94.223-101.627,166.879v140.318c10.163-6.914,19.231-12.764,25.485-16.721V174.947H180.128z"/>
</g>
<g style="opacity:0.2;">
	<path style="fill:#231F20;" d="M105.24,441.445c0,0,0-18.632,0-45.545c0-18.473,51.43-55.473,83.694-76.867v-25.976
		c0,0-109.179,66.247-109.179,93.161c0,26.913,0,45.545,0,45.545s-0.977,32.114,34.608,33.078
		C104.831,455.068,105.24,441.445,105.24,441.445z"/>
</g>
<g style="opacity:0.2;">
	<path style="fill:#231F20;" d="M383.384,329.59V123.228c0-14.33,8.649-26.636,21.008-31.997c-4.113-1.838-8.666-2.87-13.463-2.87
		c-18.242,0-33.032,14.79-33.032,33.032v195.503c23.304,15.875,52.148,37.213,66.064,54.108v-11.663
		C410.917,348.843,396.34,338.416,383.384,329.59z"/>
</g>
<g style="opacity:0.2;">
	<path style="fill:#231F20;" d="M114.063,121.393c0-13.724,8.374-25.493,20.288-30.481c-3.922-1.642-8.225-2.552-12.743-2.552
		c-18.241,0-33.032,14.79-33.032,33.032v247.697c6.257-7.444,15.325-15.714,25.485-23.983V121.393H114.063z"/>
</g>
<g style="opacity:0.1;">
	<path style="fill:#231F20;" d="M249.925,308.291c0-13.048,7.853-24.255,19.087-29.17c-3.903-1.707-8.211-2.661-12.743-2.661
		c-17.58,0-31.83,14.251-31.83,31.831s14.25,31.83,31.83,31.83c4.532,0,8.84-0.954,12.743-2.661
		C257.778,332.546,249.925,321.339,249.925,308.291z"/>
</g>
</svg>